<svg xmlns="http://www.w3.org/2000/svg" width="1600" height="900" viewBox="0 0 1600 900">
  <rect width="1600" height="900" fill="#f3f6fa"/>
  <rect width="248" height="900" fill="#0f1f35"/>
  <rect x="248" width="1352" height="72" fill="#ffffff"/>
  <line x1="248" y1="72" x2="1600" y2="72" stroke="#dbe4ef"/>
  <text x="34" y="42" fill="#8ec5ff" font-family="Arial,'Microsoft YaHei'" font-size="13" letter-spacing="3">INSTRUMENT OS</text>
  <text x="34" y="77" fill="#ffffff" font-family="Arial,'Microsoft YaHei'" font-size="23" font-weight="700">仪器管理系统</text>
  <rect x="20" y="122" width="208" height="48" rx="10" fill="#1e3c61"/>
  <text x="40" y="152" fill="#ffffff" font-family="Arial,'Microsoft YaHei'" font-size="15">▦  工作台总览</text>
  <text x="40" y="211" fill="#9fb1c8" font-family="Arial,'Microsoft YaHei'" font-size="15">▣  预警总览</text>
  <text x="40" y="263" fill="#9fb1c8" font-family="Arial,'Microsoft YaHei'" font-size="15">◈  下场安排</text>
  <text x="40" y="315" fill="#9fb1c8" font-family="Arial,'Microsoft YaHei'" font-size="15">⌁  仪器出入</text>
  <text x="40" y="367" fill="#9fb1c8" font-family="Arial,'Microsoft YaHei'" font-size="15">◇  仪器管理</text>
  <text x="40" y="419" fill="#9fb1c8" font-family="Arial,'Microsoft YaHei'" font-size="15">⌘  数据统计</text>
  <line x1="32" y1="454" x2="216" y2="454" stroke="#29405f"/>
  <rect x="20" y="478" width="208" height="50" rx="10" fill="#1677ff"/>
  <text x="40" y="509" fill="#ffffff" font-family="Arial,'Microsoft YaHei'" font-size="15" font-weight="700">ϟ  一键转送</text>
  <text x="40" y="570" fill="#9fb1c8" font-family="Arial,'Microsoft YaHei'" font-size="15">⚙  系统设置</text>
  <text x="40" y="842" fill="#6f849e" font-family="Arial,'Microsoft YaHei'" font-size="12">v0.0.106 · 在线</text>
  <text x="282" y="36" fill="#10233f" font-family="Arial,'Microsoft YaHei'" font-size="17" font-weight="700">ϟ 一键转送</text>
  <text x="1325" y="36" fill="#4c6581" font-family="Arial,'Microsoft YaHei'" font-size="13">数据库已连接　⌕　◌　admin</text>
  <text x="282" y="126" fill="#10233f" font-family="Arial,'Microsoft YaHei'" font-size="30" font-weight="700">转送工作台</text>
  <text x="282" y="157" fill="#6b7b91" font-family="Arial,'Microsoft YaHei'" font-size="14">集中维护模板，按匹配规则批量生成转送文件</text>
  <rect x="1160" y="105" width="160" height="46" rx="9" fill="#1677ff"/>
  <text x="1197" y="134" fill="#ffffff" font-family="Arial,'Microsoft YaHei'" font-size="14" font-weight="700">＋ 新建任务</text>
  <rect x="1332" y="105" width="210" height="46" rx="9" fill="#ffffff" stroke="#d6e1ed"/>
  <text x="1360" y="134" fill="#4d6480" font-family="Arial,'Microsoft YaHei'" font-size="14">最近更新　10:42:18</text>
  <rect x="282" y="190" width="1260" height="92" rx="12" fill="#ffffff" stroke="#dbe5f0"/>
  <text x="312" y="221" fill="#6b7b91" font-family="Arial,'Microsoft YaHei'" font-size="13">模板状态</text>
  <text x="312" y="257" fill="#10233f" font-family="Arial,'Microsoft YaHei'" font-size="25" font-weight="700">12</text>
  <text x="420" y="257" fill="#0d9488" font-family="Arial,'Microsoft YaHei'" font-size="13">●  已启用</text>
  <line x1="553" y1="211" x2="553" y2="262" stroke="#e4ebf3"/>
  <text x="595" y="221" fill="#6b7b91" font-family="Arial,'Microsoft YaHei'" font-size="13">本周处理任务</text>
  <text x="595" y="257" fill="#10233f" font-family="Arial,'Microsoft YaHei'" font-size="25" font-weight="700">48</text>
  <text x="703" y="257" fill="#1677ff" font-family="Arial,'Microsoft YaHei'" font-size="13">↑ 18.6%</text>
  <line x1="840" y1="211" x2="840" y2="262" stroke="#e4ebf3"/>
  <text x="882" y="221" fill="#6b7b91" font-family="Arial,'Microsoft YaHei'" font-size="13">映射完整度</text>
  <text x="882" y="257" fill="#10233f" font-family="Arial,'Microsoft YaHei'" font-size="25" font-weight="700">96%</text>
  <rect x="1005" y="242" width="220" height="8" rx="4" fill="#e6edf5"/><rect x="1005" y="242" width="180" height="8" rx="4" fill="#0d9488"/>
  <text x="1264" y="257" fill="#0d9488" font-family="Arial,'Microsoft YaHei'" font-size="13">运行正常</text>
  <text x="282" y="329" fill="#10233f" font-family="Arial,'Microsoft YaHei'" font-size="18" font-weight="700">模板配置</text>
  <text x="282" y="354" fill="#6b7b91" font-family="Arial,'Microsoft YaHei'" font-size="13">点击任意面板展开编辑　·　每个模板独立保存、编辑、删除</text>
  <rect x="282" y="378" width="1260" height="78" rx="12" fill="#ffffff" stroke="#1677ff" stroke-width="2"/>
  <circle cx="322" cy="417" r="18" fill="#e9f2ff"/><text x="313" y="423" fill="#1677ff" font-family="Arial" font-size="17" font-weight="700">01</text>
  <text x="365" y="412" fill="#10233f" font-family="Arial,'Microsoft YaHei'" font-size="16" font-weight="700">报价单模板</text>
  <text x="365" y="435" fill="#6b7b91" font-family="Arial,'Microsoft YaHei'" font-size="13">报价单默认格式　·　最近修改 2026-09-02</text>
  <rect x="1160" y="401" width="72" height="32" rx="8" fill="#ffffff" stroke="#cbd9e8"/><text x="1179" y="422" fill="#3e6185" font-family="Arial,'Microsoft YaHei'" font-size="12">编辑</text>
  <rect x="1242" y="401" width="72" height="32" rx="8" fill="#fff5f4" stroke="#ffd5d1"/><text x="1261" y="422" fill="#d14343" font-family="Arial,'Microsoft YaHei'" font-size="12">删除</text>
  <rect x="1330" y="402" width="82" height="30" rx="15" fill="#e8f8f2"/><text x="1350" y="422" fill="#0d9488" font-family="Arial,'Microsoft YaHei'" font-size="12">已启用</text>
  <text x="1482" y="426" fill="#1677ff" font-family="Arial" font-size="22">⌃</text>
  <rect x="282" y="468" width="1260" height="196" rx="0 0 12 12" fill="#ffffff" stroke="#1677ff"/>
  <text x="320" y="505" fill="#10233f" font-family="Arial,'Microsoft YaHei'" font-size="13" font-weight="700">模板名称</text>
  <rect x="320" y="519" width="360" height="44" rx="8" fill="#ffffff" stroke="#d5dfeb"/><text x="338" y="547" fill="#10233f" font-family="Arial,'Microsoft YaHei'" font-size="14">报价单默认格式</text>
  <text x="720" y="505" fill="#10233f" font-family="Arial,'Microsoft YaHei'" font-size="13" font-weight="700">表头行号</text>
  <rect x="720" y="519" width="180" height="44" rx="8" fill="#ffffff" stroke="#d5dfeb"/><text x="738" y="547" fill="#10233f" font-family="Arial" font-size="14">1</text>
  <text x="940" y="505" fill="#10233f" font-family="Arial,'Microsoft YaHei'" font-size="13" font-weight="700">数据起始行号</text>
  <rect x="940" y="519" width="180" height="44" rx="8" fill="#ffffff" stroke="#d5dfeb"/><text x="958" y="547" fill="#10233f" font-family="Arial" font-size="14">2</text>
  <rect x="1160" y="519" width="150" height="44" rx="8" fill="#1677ff"/><text x="1200" y="547" fill="#ffffff" font-family="Arial,'Microsoft YaHei'" font-size="14" font-weight="700">保存模板</text>
  <text x="1160" y="604" fill="#6b7b91" font-family="Arial,'Microsoft YaHei'" font-size="12">保存仅作用于当前展开的模板</text>
  <rect x="320" y="589" width="820" height="43" rx="8" fill="#f5f8fc"/><text x="345" y="616" fill="#4d6480" font-family="Arial,'Microsoft YaHei'" font-size="13">报价单.xlsx　　字段 18 个　　最后同步：今天 10:42</text>
  <rect x="282" y="686" width="1260" height="78" rx="12" fill="#ffffff" stroke="#dbe5f0"/>
  <circle cx="322" cy="725" r="18" fill="#e8fbfa"/><text x="313" y="731" fill="#0d9488" font-family="Arial" font-size="17" font-weight="700">02</text>
  <text x="365" y="720" fill="#10233f" font-family="Arial,'Microsoft YaHei'" font-size="16" font-weight="700">导入格式模板</text><text x="365" y="743" fill="#6b7b91" font-family="Arial,'Microsoft YaHei'" font-size="13">常规导入格式　·　字段 24 个</text><text x="1482" y="734" fill="#6b7b91" font-family="Arial" font-size="22">⌄</text>
  <rect x="282" y="778" width="610" height="78" rx="12" fill="#ffffff" stroke="#dbe5f0"/><text x="320" y="812" fill="#10233f" font-family="Arial,'Microsoft YaHei'" font-size="16" font-weight="700">收发委托模板</text><text x="320" y="837" fill="#6b7b91" font-family="Arial,'Microsoft YaHei'" font-size="13">1 个文件　·　已启用</text><text x="842" y="826" fill="#6b7b91" font-family="Arial" font-size="22">⌄</text>
  <rect x="932" y="778" width="610" height="78" rx="12" fill="#ffffff" stroke="#dbe5f0"/><text x="970" y="812" fill="#10233f" font-family="Arial,'Microsoft YaHei'" font-size="16" font-weight="700">转送对象模板</text><text x="970" y="837" fill="#6b7b91" font-family="Arial,'Microsoft YaHei'" font-size="13">4 个匹配规则　·　待检查</text><text x="1492" y="826" fill="#6b7b91" font-family="Arial" font-size="22">⌄</text>
</svg>
